<svg width="25" height="20" viewBox="0 0 25 20" fill="none" xmlns="http://www.w3.org/2000/svg">
<path d="M24.8957 9.38356C22.3716 3.63299 17.6232 0.0649414 12.5 0.0649414C7.37679 0.0649414 2.62844 3.63299 0.10432 9.38356C0.0355144 9.53826 0 9.70522 0 9.87401C0 10.0428 0.0355144 10.2098 0.10432 10.3645C2.62844 16.115 7.37679 19.6831 12.5 19.6831C17.6232 19.6831 22.3716 16.115 24.8957 10.3645C24.9645 10.2098 25 10.0428 25 9.87401C25 9.70522 24.9645 9.53826 24.8957 9.38356ZM12.5 17.2308C8.53888 17.2308 4.79019 14.423 2.62844 9.87401C4.79019 5.32506 8.53888 2.51721 12.5 2.51721C16.4611 2.51721 20.2098 5.32506 22.3716 9.87401C20.2098 14.423 16.4611 17.2308 12.5 17.2308ZM12.5 4.96948C11.5114 4.96948 10.5451 5.25712 9.72312 5.79604C8.90116 6.33496 8.26052 7.10094 7.88221 7.99713C7.5039 8.89331 7.40492 9.87945 7.59778 10.8308C7.79064 11.7822 8.26668 12.6561 8.9657 13.342C9.66472 14.028 10.5553 14.4951 11.5249 14.6843C12.4945 14.8736 13.4994 14.7764 14.4128 14.4052C15.3261 14.034 16.1067 13.4054 16.6559 12.5988C17.2051 11.7923 17.4983 10.844 17.4983 9.87401C17.4983 8.57325 16.9717 7.32576 16.0343 6.40598C15.0969 5.4862 13.8256 4.96948 12.5 4.96948ZM12.5 12.3263C12.0057 12.3263 11.5225 12.1825 11.1116 11.913C10.7006 11.6435 10.3803 11.2605 10.1911 10.8125C10.002 10.3644 9.95246 9.87129 10.0489 9.3956C10.1453 8.9199 10.3833 8.48295 10.7328 8.14C11.0824 7.79704 11.5277 7.56349 12.0124 7.46886C12.4972 7.37424 12.9997 7.42281 13.4564 7.60841C13.913 7.79402 14.3033 8.10833 14.5779 8.51161C14.8526 8.91488 14.9991 9.389 14.9991 9.87401C14.9991 10.5244 14.7358 11.1481 14.2671 11.608C13.7985 12.0679 13.1628 12.3263 12.5 12.3263Z" fill="#F1BB27"/>
</svg>
