<svg width="19" height="20" viewBox="0 0 19 20" fill="none" xmlns="http://www.w3.org/2000/svg">
<path d="M18.3511 15.4004L15.5688 10.5955C16.1381 9.54979 16.4347 8.37748
       16.4312 7.18685C16.4312 5.28078 15.674 3.45278 14.3262 2.10498C12.9784
       0.757184 11.1504 0 9.24432 0C7.33825 0 5.51025 0.757184 4.16245
       2.10498C2.81466 3.45278 2.05747 5.28078 2.05747 7.18685C2.05394 8.37748
       2.35055 9.54979 2.91989 10.5955L0.137556 15.4004C0.0472695 15.5568
       -0.00017789 15.7342 5.01181e-07 15.9148C0.000178893 16.0953 0.0479766
       16.2727 0.138572 16.4289C0.229166 16.5851 0.359354 16.7146 0.516
       16.8044C0.672647 16.8942 0.850211 16.9412 1.03078
       16.9404H3.97739L5.47636 19.4661C5.52689 19.5498 5.58912 19.6259 5.66116
       19.692C5.85149 19.8754 6.10524 19.9784 6.36958 19.9794H6.51332C6.66832
       19.9582 6.81642 19.9019 6.94632 19.8147C7.07621 19.7275 7.18446 19.6118
       7.26281 19.4764L9.24432 16.0677L11.2258 19.5072C11.3053 19.6407 11.4141
       19.7544 11.5439 19.8398C11.6737 19.9251 11.8213 19.9799 11.9753
       20H12.1191C12.387 20.0016 12.6449 19.8984 12.8377 19.7125C12.9068
       19.6502 12.9657 19.5774 13.0123 19.4969L14.5113 16.9712H17.4579C17.6388
       16.972 17.8167 16.9249 17.9735 16.8347C18.1304 16.7446 18.2606 16.6146
       18.3511 16.4579C18.447 16.2982 18.4977 16.1154 18.4977 15.9291C18.4977
       15.7429 18.447 15.5601 18.3511 15.4004V15.4004ZM6.35932 16.9712L5.44556
       15.4415C5.35558 15.2897 5.22801 15.1637 5.07515 15.0755C4.92229 14.9874
       4.7493 14.9402 4.57287 14.9384H2.79669L4.26486 12.3922C5.27587 13.3664
       6.55009 14.0231 7.93016 14.2813L6.35932 16.9712ZM9.24432 12.3203C8.22902
       12.3203 7.23652 12.0192 6.39232 11.4552C5.54813 10.8911 4.89016 10.0894
       4.50162 9.15134C4.11308 8.21333 4.01142 7.18116 4.2095 6.18536C4.40757
       5.18957 4.89649 4.27487 5.61442 3.55694C6.33234 2.83902 7.24704 2.3501
       8.24283 2.15202C9.23863 1.95395 10.2708 2.05561 11.2088 2.44415C12.1468
       2.83269 12.9486 3.49066 13.5126 4.33485C14.0767 5.17905 14.3778 6.17155
       14.3778 7.18685C14.3778 8.54833 13.8369 9.85405 12.8742 10.8168C11.9115
       11.7795 10.6058 12.3203 9.24432 12.3203V12.3203ZM13.9158 14.9384C13.7393
       14.9402 13.5664 14.9874 13.4135 15.0755C13.2606 15.1637 13.1331 15.2897
       13.0431 15.4415L12.1293 16.9712L10.5688 14.2505C11.944 13.987 13.2135
       13.3309 14.2238 12.3614L15.692 14.9076L13.9158 14.9384Z"
    fill="#F1BB27"/>
</svg>
