		<svg width="35" height="43" viewBox="0 0 35 43" fill="none" xmlns="http://www.w3.org/2000/svg" class="transition shield">
			<path
				d="M23.2305 29.7462L24.2448 30.3586L23.9758 29.2047L22.4496 22.6566L27.4924 18.261L28.3793 17.488L27.2072 17.386L20.5468 16.8062L17.9609 10.654L17.4993 9.55566L17.0389 10.6545L14.4528 16.8258L7.79275 17.4055L6.6173 17.5078L7.50837 18.2812L12.5509 22.6579L11.0433 29.206L10.7779 30.3587L11.7896 29.7458L17.5004 26.2866L23.2305 29.7462ZM0.5 19.5455V8.14243L17.5 0.547629L34.5 8.14243V19.5455C34.5 30.1421 27.229 40.0311 17.5 42.4848C7.77103 40.0311 0.5 30.1421 0.5 19.5455Z"
				fill="#1E1E1E"
				stroke="#594714"
			/>
		</svg>
