<svg width="23" height="20" viewBox="0 0 23 20" fill="none" xmlns="http://www.w3.org/2000/svg">
<path d="M18.8889 3.33333H15.5556V2.22222C15.5556 1.63285 15.3214 1.06762
       14.9047 0.650874C14.4879 0.234126 13.9227 0 13.3333 0H8.88889C8.29952 0
       7.73429 0.234126 7.31754 0.650874C6.90079 1.06762 6.66667 1.63285
       6.66667 2.22222V3.33333H3.33333C2.44928 3.33333 1.60143 3.68452 0.976311
       4.30964C0.35119 4.93477 0 5.78261 0 6.66667V16.6667C0 17.5507 0.35119
       18.3986 0.976311 19.0237C1.60143 19.6488 2.44928 20 3.33333
       20H18.8889C19.7729 20 20.6208 19.6488 21.2459 19.0237C21.871 18.3986
       22.2222 17.5507 22.2222 16.6667V6.66667C22.2222 5.78261 21.871 4.93477
       21.2459 4.30964C20.6208 3.68452 19.7729 3.33333 18.8889 3.33333ZM8.88889
       2.22222H13.3333V3.33333H8.88889V2.22222ZM20 16.6667C20 16.9614 19.8829
       17.244 19.6746 17.4523C19.4662 17.6607 19.1836 17.7778 18.8889
       17.7778H3.33333C3.03865 17.7778 2.75603 17.6607 2.54766 17.4523C2.33929
       17.244 2.22222 16.9614 2.22222 16.6667V10.4333L7.42222 12.2222C7.5402
       12.2382 7.6598 12.2382 7.77778 12.2222H14.4444C14.5649 12.22 14.6846
       12.2013 14.8 12.1667L20 10.4333V16.6667ZM20 8.08889L14.2667
       10H7.95555L2.22222 8.08889V6.66667C2.22222 6.37198 2.33929 6.08937
       2.54766 5.88099C2.75603 5.67262 3.03865 5.55556 3.33333
       5.55556H18.8889C19.1836 5.55556 19.4662 5.67262 19.6746 5.88099C19.8829
       6.08937 20 6.37198 20 6.66667V8.08889Z" fill="#F1BB27"/>
</svg>
