<svg width="25" height="32" viewBox="0 0 25 32" fill="none" xmlns="http://www.w3.org/2000/svg">
<path d="M21.3519 4.71249C19.0063 2.25539 15.8249 0.875 12.5077 0.875C9.19042 0.875 6.00905 2.25539 3.66341 4.71249C1.31777 7.16959 2.47153e-08 10.5021 0 13.977C-2.47153e-08 17.4519 1.31777 20.7844 3.66341 23.2415L11.4316 31.3943C11.5686 31.539 11.7317 31.6539 11.9113 31.7323C12.0909 31.8107 12.2836 31.851 12.4782 31.851C12.6728 31.851 12.8654 31.8107 13.0451 31.7323C13.2247 31.6539 13.3877 31.539 13.5247 31.3943L21.3519 23.1643C23.6877 20.7174 25 17.3988 25 13.9384C25 10.478 23.6877 7.15936 21.3519 4.71249ZM19.244 20.9563L12.5077 28.0436L5.77129 20.9563C4.44044 19.5609 3.53439 17.7835 3.16768 15.8489C2.80097 13.9142 2.99005 11.9091 3.71102 10.087C4.432 8.26483 5.6525 6.70752 7.21825 5.61188C8.784 4.51624 10.6247 3.93146 12.5077 3.93146C14.3906 3.93146 16.2313 4.51624 17.7971 5.61188C19.3628 6.70752 20.5833 8.26483 21.3043 10.087C22.0253 11.9091 22.2143 13.9142 21.8476 15.8489C21.4809 17.7835 20.5749 19.5609 19.244 20.9563ZM8.08553 9.23666C6.89556 10.487 6.22735 12.1806 6.22735 13.9461C6.22735 15.7117 6.89556 17.4052 8.08553 18.6556C8.9696 19.5832 10.0955 20.2168 11.322 20.4767C12.5485 20.7366 13.821 20.6113 14.9797 20.1165C16.1385 19.6217 17.132 18.7795 17.8355 17.6955C18.5391 16.6115 18.9214 15.334 18.9345 14.0233C18.9411 13.1481 18.7802 12.2804 18.4612 11.4715C18.1422 10.6626 17.6716 9.92896 17.0772 9.31386C16.493 8.68786 15.7964 8.18905 15.0274 7.84615C14.2585 7.50326 13.4324 7.32303 12.5967 7.31586C11.761 7.30868 10.9322 7.4747 10.158 7.80434C9.38378 8.13399 8.67945 8.62077 8.08553 9.23666ZM14.9988 16.463C14.4402 17.057 13.7019 17.4294 12.9103 17.5164C12.1186 17.6034 11.3226 17.3997 10.6585 16.94C9.99434 16.4803 9.50326 15.7932 9.2692 14.9962C9.03513 14.1992 9.07262 13.3418 9.37525 12.5706C9.67789 11.7993 10.2269 11.1622 10.9283 10.768C11.6298 10.3738 12.4402 10.2471 13.221 10.4096C14.0018 10.572 14.7044 11.0135 15.2088 11.6586C15.7133 12.3037 15.9881 13.1123 15.9864 13.9461C15.9649 14.8992 15.5832 15.8045 14.9251 16.463H14.9988Z" fill="#F1BB27"/>
</svg>
