<svg width="32" height="34" viewBox="0 0 32 34" fill="none" xmlns="http://www.w3.org/2000/svg">
<path d="M6.43556 14.9401C8.99556 20.1349 13.12 24.3935 18.1511 27.0368L22.0622 22.9984C22.56 22.4845 23.2533 22.3376 23.8756 22.5395C25.8667 23.2187 28 23.5858 30.2222 23.5858C30.6937 23.5858 31.1459 23.7792 31.4793 24.1235C31.8127 24.4677 32 24.9346 32 25.4214V31.8461C32 32.3329 31.8127 32.7998 31.4793 33.1441C31.1459 33.4883 30.6937 33.6817 30.2222 33.6817C22.2068 33.6817 14.5197 30.394 8.85188 24.5418C3.18412 18.6897 0 10.7524 0 2.47624C0 1.98941 0.187301 1.52251 0.520699 1.17826C0.854097 0.83402 1.30628 0.640625 1.77778 0.640625H8C8.4715 0.640625 8.92368 0.83402 9.25708 1.17826C9.59048 1.52251 9.77778 1.98941 9.77778 2.47624C9.77778 4.77076 10.1333 6.9735 10.7911 9.02939C10.9867 9.67185 10.8444 10.3877 10.3467 10.9017L6.43556 14.9401Z" fill="#F1BB27"/>
</svg>
